<?xml version="1.0" encoding="iso-8859-1"?>
<!-- Generator: Adobe Illustrator 19.0.0, SVG Export Plug-In . SVG Version: 6.00 Build 0)  -->
<svg version="1.1" id="Layer_1" xmlns="http://www.w3.org/2000/svg" xmlns:xlink="http://www.w3.org/1999/xlink" x="0px" y="0px"
	 viewBox="0 0 503.607 503.607" style="enable-background:new 0 0 503.607 503.607;" xml:space="preserve">
<g>
	<g>
		<g>
			<path d="M453.25,50.713l-108.771-0.352l-0.344,58.402c0,0.193,0.151,0.353,0.344,0.353h108.418L453.25,50.713z"/>
			<path d="M159.48,50.713L50.709,50.361l-0.344,58.402c0,0.193,0.151,0.353,0.344,0.353h108.418L159.48,50.713z"/>
			<path d="M201.443,419.32c0,0.193,0.159,0.353,0.353,0.353h108.41l0.353-58.402l-108.762-0.353L201.443,419.32z"/>
			<path d="M442.737,193.049c10.425,0,18.902-8.477,18.902-18.902v-14.672h19.951c12.137,0,22.016-9.879,22.016-22.016V22.016
				C503.607,9.879,493.727,0,481.591,0H315.786c-12.137,0-22.016,9.879-22.016,22.016v115.443c0,12.137,9.879,22.016,22.016,22.016
				h28.345v14.672c0,10.425,8.477,18.902,18.902,18.902h31.459v26.372c-11.742,3.055-20.933,12.246-23.989,23.988h-86.318
				c-3.752-14.445-16.787-25.18-32.382-25.18s-28.63,10.735-32.382,25.18h-86.318c-3.055-11.742-12.246-20.933-23.988-23.988
				v-26.372h31.459c10.425,0,18.902-8.477,18.902-18.902v-14.672h28.345c12.137,0,22.016-9.879,22.016-22.016V22.016
				C209.836,9.879,199.957,0,187.82,0H22.016C9.879,0,0,9.879,0,22.016v115.443c0,12.137,9.879,22.016,22.016,22.016h19.951v14.672
				c0,10.425,8.477,18.902,18.902,18.902h31.459v26.372c-11.742,3.055-20.933,12.246-23.988,23.988H8.393
				C3.76,243.41,0,247.162,0,251.803c0,4.642,3.76,8.393,8.393,8.393h59.946c3.752,14.437,16.787,25.18,32.382,25.18
				s28.63-10.744,32.382-25.18h86.318c3.055,11.742,12.246,20.933,23.988,23.988v26.372h-70.312
				c-12.137,0-22.016,9.879-22.016,22.016v115.443c0,12.137,9.879,22.016,22.016,22.016h19.951v14.672
				c0,10.425,8.477,18.902,18.902,18.902h79.704c10.425,0,18.902-8.477,18.902-18.902v-14.672h28.345
				c12.137,0,22.016-9.879,22.016-22.016V332.573c0-12.137-9.879-22.016-22.016-22.016h-78.705v-26.372
				c11.742-3.055,20.933-12.246,23.988-23.988h86.318c3.752,14.437,16.787,25.18,32.382,25.18s28.63-10.744,32.382-25.18h59.946
				c4.633,0,8.393-3.752,8.393-8.393c0-4.642-3.76-8.393-8.393-8.393h-59.946c-3.055-11.742-12.246-20.933-23.988-23.988v-26.372
				H442.737z M33.574,108.762V50.713c0-9.451,7.688-17.139,17.139-17.139h108.41c9.451,0,17.139,7.688,17.139,17.139v58.049
				c0,9.451-7.688,17.139-17.139,17.139H50.713C41.262,125.902,33.574,118.213,33.574,108.762z M60.869,176.262
				c-1.167,0-2.115-0.948-2.115-2.115v-14.672h83.934v14.672c0,1.167-0.948,2.115-2.115,2.115H60.869z M293.771,484.704
				c0,1.167-0.948,2.115-2.115,2.115h-79.704c-1.167,0-2.115-0.948-2.115-2.115v-14.672h83.934V484.704z M310.205,344.131
				c9.451,0,17.139,7.688,17.139,17.139v58.049c0,9.451-7.688,17.139-17.139,17.139h-108.41c-9.451,0-17.139-7.688-17.139-17.139
				v-58.049c0-9.451,7.688-17.139,17.139-17.139H310.205z M344.484,125.902c-9.451,0-17.139-7.688-17.139-17.139V50.713
				c0-9.451,7.688-17.139,17.139-17.139h108.41c9.451,0,17.139,7.688,17.139,17.139v58.049c0,9.451-7.688,17.139-17.139,17.139
				H344.484z M363.033,176.262c-1.167,0-2.115-0.948-2.115-2.115v-14.672h83.934v14.672c0,1.167-0.948,2.115-2.115,2.115H363.033z"
				/>
		</g>
	</g>
</g>
<g>
</g>
<g>
</g>
<g>
</g>
<g>
</g>
<g>
</g>
<g>
</g>
<g>
</g>
<g>
</g>
<g>
</g>
<g>
</g>
<g>
</g>
<g>
</g>
<g>
</g>
<g>
</g>
<g>
</g>
</svg>
